<svg width="295" height="34" viewBox="0 0 295 34" fill="none" xmlns="http://www.w3.org/2000/svg">
<path d="M0.267297 3.8H11.7153C14.4513 3.8 16.8633 4.328 18.9513 5.384C21.0633 6.416 22.6953 7.88 23.8473 9.776C25.0233 11.672 25.6113 13.88 25.6113 16.4C25.6113 18.92 25.0233 21.128 23.8473 23.024C22.6953 24.92 21.0633 26.396 18.9513 27.452C16.8633 28.484 14.4513 29 11.7153 29H0.267297V3.8ZM11.4273 24.212C13.9473 24.212 15.9513 23.516 17.4393 22.124C18.9513 20.708 19.7073 18.8 19.7073 16.4C19.7073 14 18.9513 12.104 17.4393 10.712C15.9513 9.296 13.9473 8.588 11.4273 8.588H6.0993V24.212H11.4273ZM29.6135 9.632H35.2295V29H29.6135V9.632ZM32.4215 6.932C31.3895 6.932 30.5495 6.632 29.9015 6.032C29.2535 5.432 28.9295 4.688 28.9295 3.8C28.9295 2.912 29.2535 2.168 29.9015 1.568C30.5495 0.967998 31.3895 0.667998 32.4215 0.667998C33.4535 0.667998 34.2935 0.955998 34.9415 1.532C35.5895 2.108 35.9135 2.828 35.9135 3.692C35.9135 4.628 35.5895 5.408 34.9415 6.032C34.2935 6.632 33.4535 6.932 32.4215 6.932ZM59.6656 9.632L51.4936 29H45.6976L37.5616 9.632H43.3576L48.7216 22.808L54.2656 9.632H59.6656ZM80.4019 19.388C80.4019 19.46 80.3659 19.964 80.2939 20.9H65.6419C65.9059 22.1 66.5299 23.048 67.5139 23.744C68.4979 24.44 69.7219 24.788 71.1859 24.788C72.1939 24.788 73.0819 24.644 73.8499 24.356C74.6419 24.044 75.3739 23.564 76.0459 22.916L79.0339 26.156C77.2099 28.244 74.5459 29.288 71.0419 29.288C68.8579 29.288 66.9259 28.868 65.2459 28.028C63.5659 27.164 62.2699 25.976 61.3579 24.464C60.4459 22.952 59.9899 21.236 59.9899 19.316C59.9899 17.42 60.4339 15.716 61.3219 14.204C62.2339 12.668 63.4699 11.48 65.0299 10.64C66.6139 9.776 68.3779 9.344 70.3219 9.344C72.2179 9.344 73.9339 9.752 75.4699 10.568C77.0059 11.384 78.2059 12.56 79.0699 14.096C79.9579 15.608 80.4019 17.372 80.4019 19.388ZM70.3579 13.592C69.0859 13.592 68.0179 13.952 67.1539 14.672C66.2899 15.392 65.7619 16.376 65.5699 17.624H75.1099C74.9179 16.4 74.3899 15.428 73.5259 14.708C72.6619 13.964 71.6059 13.592 70.3579 13.592Z" fill="url(#paint0_linear_151_50)"/>
<path d="M94.869 12.2H98.757V29H94.869V12.2ZM110.328 15.896C111.928 15.896 113.216 16.376 114.192 17.336C115.184 18.296 115.68 19.72 115.68 21.608V29H111.936V22.184C111.936 21.16 111.712 20.4 111.264 19.904C110.816 19.392 110.168 19.136 109.32 19.136C108.376 19.136 107.624 19.432 107.064 20.024C106.504 20.6 106.224 21.464 106.224 22.616V29H102.48V16.088H106.056V17.6C106.552 17.056 107.168 16.64 107.904 16.352C108.64 16.048 109.448 15.896 110.328 15.896ZM127.402 28.376C127.034 28.648 126.578 28.856 126.034 29C125.506 29.128 124.946 29.192 124.354 29.192C122.818 29.192 121.626 28.8 120.778 28.016C119.946 27.232 119.53 26.08 119.53 24.56V19.256H117.538V16.376H119.53V13.232H123.274V16.376H126.49V19.256H123.274V24.512C123.274 25.056 123.41 25.48 123.682 25.784C123.97 26.072 124.37 26.216 124.882 26.216C125.474 26.216 125.978 26.056 126.394 25.736L127.402 28.376ZM135.249 29.192C133.889 29.192 132.665 28.912 131.577 28.352C130.505 27.776 129.665 26.984 129.057 25.976C128.449 24.968 128.145 23.824 128.145 22.544C128.145 21.264 128.449 20.12 129.057 19.112C129.665 18.104 130.505 17.32 131.577 16.76C132.665 16.184 133.889 15.896 135.249 15.896C136.609 15.896 137.825 16.184 138.897 16.76C139.969 17.32 140.809 18.104 141.417 19.112C142.025 20.12 142.329 21.264 142.329 22.544C142.329 23.824 142.025 24.968 141.417 25.976C140.809 26.984 139.969 27.776 138.897 28.352C137.825 28.912 136.609 29.192 135.249 29.192ZM135.249 26.12C136.209 26.12 136.993 25.8 137.601 25.16C138.225 24.504 138.537 23.632 138.537 22.544C138.537 21.456 138.225 20.592 137.601 19.952C136.993 19.296 136.209 18.968 135.249 18.968C134.289 18.968 133.497 19.296 132.873 19.952C132.249 20.592 131.937 21.456 131.937 22.544C131.937 23.632 132.249 24.504 132.873 25.16C133.497 25.8 134.289 26.12 135.249 26.12ZM155.372 15.368H149.996V12.2H164.636V15.368H159.26V29H155.372V15.368ZM174.312 15.896C175.912 15.896 177.2 16.376 178.176 17.336C179.168 18.296 179.664 19.72 179.664 21.608V29H175.92V22.184C175.92 21.16 175.696 20.4 175.248 19.904C174.8 19.392 174.152 19.136 173.304 19.136C172.36 19.136 171.608 19.432 171.048 20.024C170.488 20.6 170.208 21.464 170.208 22.616V29H166.464V11.192H170.208V17.432C170.704 16.936 171.304 16.56 172.008 16.304C172.712 16.032 173.48 15.896 174.312 15.896ZM195.847 22.592C195.847 22.64 195.823 22.976 195.775 23.6H186.007C186.183 24.4 186.599 25.032 187.255 25.496C187.911 25.96 188.727 26.192 189.703 26.192C190.375 26.192 190.967 26.096 191.479 25.904C192.007 25.696 192.495 25.376 192.943 24.944L194.935 27.104C193.719 28.496 191.943 29.192 189.607 29.192C188.151 29.192 186.863 28.912 185.743 28.352C184.623 27.776 183.759 26.984 183.151 25.976C182.543 24.968 182.239 23.824 182.239 22.544C182.239 21.28 182.535 20.144 183.127 19.136C183.735 18.112 184.559 17.32 185.599 16.76C186.655 16.184 187.831 15.896 189.127 15.896C190.391 15.896 191.535 16.168 192.559 16.712C193.583 17.256 194.383 18.04 194.959 19.064C195.551 20.072 195.847 21.248 195.847 22.592ZM189.151 18.728C188.303 18.728 187.591 18.968 187.015 19.448C186.439 19.928 186.087 20.584 185.959 21.416H192.319C192.191 20.6 191.839 19.952 191.263 19.472C190.687 18.976 189.983 18.728 189.151 18.728ZM205.4 12.2H213.032C214.856 12.2 216.464 12.552 217.856 13.256C219.264 13.944 220.352 14.92 221.12 16.184C221.904 17.448 222.296 18.92 222.296 20.6C222.296 22.28 221.904 23.752 221.12 25.016C220.352 26.28 219.264 27.264 217.856 27.968C216.464 28.656 214.856 29 213.032 29H205.4V12.2ZM212.84 25.808C214.52 25.808 215.856 25.344 216.848 24.416C217.856 23.472 218.36 22.2 218.36 20.6C218.36 19 217.856 17.736 216.848 16.808C215.856 15.864 214.52 15.392 212.84 15.392H209.288V25.808H212.84ZM237.612 22.592C237.612 22.64 237.588 22.976 237.54 23.6H227.772C227.948 24.4 228.364 25.032 229.02 25.496C229.676 25.96 230.492 26.192 231.468 26.192C232.14 26.192 232.732 26.096 233.244 25.904C233.772 25.696 234.26 25.376 234.708 24.944L236.7 27.104C235.484 28.496 233.708 29.192 231.372 29.192C229.916 29.192 228.628 28.912 227.508 28.352C226.388 27.776 225.524 26.984 224.916 25.976C224.308 24.968 224.004 23.824 224.004 22.544C224.004 21.28 224.3 20.144 224.892 19.136C225.5 18.112 226.324 17.32 227.364 16.76C228.42 16.184 229.596 15.896 230.892 15.896C232.156 15.896 233.3 16.168 234.324 16.712C235.348 17.256 236.148 18.04 236.724 19.064C237.316 20.072 237.612 21.248 237.612 22.592ZM230.916 18.728C230.068 18.728 229.356 18.968 228.78 19.448C228.204 19.928 227.852 20.584 227.724 21.416H234.084C233.956 20.6 233.604 19.952 233.028 19.472C232.452 18.976 231.748 18.728 230.916 18.728ZM247.737 15.896C248.937 15.896 250.025 16.176 251.001 16.736C251.993 17.28 252.769 18.056 253.329 19.064C253.889 20.056 254.169 21.216 254.169 22.544C254.169 23.872 253.889 25.04 253.329 26.048C252.769 27.04 251.993 27.816 251.001 28.376C250.025 28.92 248.937 29.192 247.737 29.192C246.089 29.192 244.793 28.672 243.849 27.632V33.656H240.105V16.088H243.681V17.576C244.609 16.456 245.961 15.896 247.737 15.896ZM247.089 26.12C248.049 26.12 248.833 25.8 249.441 25.16C250.065 24.504 250.377 23.632 250.377 22.544C250.377 21.456 250.065 20.592 249.441 19.952C248.833 19.296 248.049 18.968 247.089 18.968C246.129 18.968 245.337 19.296 244.713 19.952C244.105 20.592 243.801 21.456 243.801 22.544C243.801 23.632 244.105 24.504 244.713 25.16C245.337 25.8 246.129 26.12 247.089 26.12ZM265.003 28.376C264.635 28.648 264.179 28.856 263.635 29C263.107 29.128 262.547 29.192 261.955 29.192C260.419 29.192 259.227 28.8 258.379 28.016C257.547 27.232 257.131 26.08 257.131 24.56V19.256H255.139V16.376H257.131V13.232H260.875V16.376H264.091V19.256H260.875V24.512C260.875 25.056 261.011 25.48 261.283 25.784C261.571 26.072 261.971 26.216 262.483 26.216C263.075 26.216 263.579 26.056 263.995 25.736L265.003 28.376ZM274.953 15.896C276.553 15.896 277.841 16.376 278.817 17.336C279.809 18.296 280.305 19.72 280.305 21.608V29H276.561V22.184C276.561 21.16 276.337 20.4 275.889 19.904C275.441 19.392 274.793 19.136 273.945 19.136C273.001 19.136 272.249 19.432 271.689 20.024C271.129 20.6 270.849 21.464 270.849 22.616V29H267.105V11.192H270.849V17.432C271.345 16.936 271.945 16.56 272.649 16.304C273.353 16.032 274.121 15.896 274.953 15.896ZM288.043 29.192C286.971 29.192 285.923 29.064 284.899 28.808C283.875 28.536 283.059 28.2 282.451 27.8L283.699 25.112C284.275 25.48 284.971 25.784 285.787 26.024C286.603 26.248 287.403 26.36 288.187 26.36C289.771 26.36 290.563 25.968 290.563 25.184C290.563 24.816 290.347 24.552 289.915 24.392C289.483 24.232 288.819 24.096 287.923 23.984C286.867 23.824 285.995 23.64 285.307 23.432C284.619 23.224 284.019 22.856 283.507 22.328C283.011 21.8 282.763 21.048 282.763 20.072C282.763 19.256 282.995 18.536 283.459 17.912C283.939 17.272 284.627 16.776 285.523 16.424C286.435 16.072 287.507 15.896 288.739 15.896C289.651 15.896 290.555 16 291.451 16.208C292.363 16.4 293.115 16.672 293.707 17.024L292.459 19.688C291.323 19.048 290.083 18.728 288.739 18.728C287.939 18.728 287.339 18.84 286.939 19.064C286.539 19.288 286.339 19.576 286.339 19.928C286.339 20.328 286.555 20.608 286.987 20.768C287.419 20.928 288.107 21.08 289.051 21.224C290.107 21.4 290.971 21.592 291.643 21.8C292.315 21.992 292.899 22.352 293.395 22.88C293.891 23.408 294.139 24.144 294.139 25.088C294.139 25.888 293.899 26.6 293.419 27.224C292.939 27.848 292.235 28.336 291.307 28.688C290.395 29.024 289.307 29.192 288.043 29.192Z" fill="white"/>
<defs>
<linearGradient id="paint0_linear_151_50" x1="-7.71946" y1="-0.499992" x2="103.316" y2="18.0393" gradientUnits="userSpaceOnUse">
<stop stop-color="#C0B7E8"/>
<stop offset="1" stop-color="#8176AF"/>
</linearGradient>
</defs>
</svg>
