<svg width="605" height="288" viewBox="0 0 605 288" fill="none" xmlns="http://www.w3.org/2000/svg">
<path d="M327.348 115.257C331.688 136.818 305.063 131.075 305.063 131.075C293.921 104.074 276.093 106.593 276.093 106.593C290.05 115.358 291.106 122.814 291.106 122.814C253.925 100.145 203.374 118.381 184.139 126.945C173.348 113.847 151.533 84.528 159.274 71.2287C169.478 53.7986 190.238 63.7731 190.238 63.7731C232.227 63.1686 229.881 50.2723 229.881 50.2723C218.739 57.728 185.898 50.2723 185.898 50.2723C214.399 50.2723 226.48 40.2979 226.48 40.2979C205.251 44.8317 181.559 25.3865 181.559 25.3865C172.879 -12.7985 132.767 3.4226 132.767 3.4226C157.866 -0.305231 151.181 22.5655 151.181 22.5655C119.748 32.1369 122.68 47.4512 122.68 47.4512C132.884 35.4618 141.563 34.555 141.563 34.555C112.828 69.3144 140.508 117.675 148.718 130.269C133.705 139.236 98.5186 158.984 82.6847 152.133C62.3938 143.367 74.0054 125.534 74.0054 125.534C73.5362 89.4649 58.5233 91.4799 58.5233 91.4799C67.2027 101.051 58.5233 129.262 58.5233 129.262C58.5233 104.779 46.9118 94.4017 46.9118 94.4017C52.1898 112.638 29.5532 132.99 29.5532 132.99C-14.8991 140.445 3.98433 174.903 3.98433 174.903C-0.355327 153.342 26.2691 159.085 26.2691 159.085C37.4115 186.086 55.2393 183.567 55.2393 183.567C41.282 174.802 40.2264 167.346 40.2264 167.346C79.5179 191.325 133.822 169.563 150.243 161.906C161.268 175.507 181.793 203.516 174.169 216.513C163.965 233.943 143.205 223.969 143.205 223.969C101.216 224.372 103.562 237.268 103.562 237.268C114.704 229.812 147.545 237.268 147.545 237.268C119.044 237.268 106.963 247.243 106.963 247.243C128.193 242.709 151.885 262.154 151.885 262.154C160.564 300.339 200.677 284.118 200.677 284.118C175.577 287.846 182.262 264.975 182.262 264.975C213.696 255.404 210.763 240.089 210.763 240.089C200.559 252.079 191.88 252.985 191.88 252.985C220.029 219.032 194.108 171.981 185.312 158.178C201.263 148.606 233.517 131.478 248.413 137.927C268.704 146.692 257.092 164.525 257.092 164.525C257.561 200.594 272.574 198.579 272.574 198.579C263.895 189.008 272.574 160.797 272.574 160.797C272.574 185.28 284.186 195.658 284.186 195.658C278.908 177.421 301.544 157.069 301.544 157.069C346.231 149.715 327.348 115.257 327.348 115.257Z" fill="url(#paint0_linear_105_89)"/>
<g clip-path="url(#clip0_105_89)">
<path d="M384.128 126.451H390.873V206.547H411.013V126.451H417.758V260.895H411.013V213.293H390.873V260.895H384.128V126.451Z" fill="url(#paint1_linear_105_89)"/>
<path d="M467.632 126.451L450.912 213.293V260.895H444.167V213.293L427.353 126.451H433.527L447.587 198.851L461.552 126.451H467.632Z" fill="url(#paint2_linear_105_89)"/>
<path d="M497.462 260.895H477.227V126.451H497.367C504.872 126.451 510.762 132.437 510.762 139.848V247.403C510.857 254.719 504.872 260.895 497.462 260.895ZM483.972 133.197V254.149H497.367C500.977 254.149 504.112 251.109 504.112 247.403V139.848C504.112 136.237 501.072 133.102 497.367 133.102H483.972V133.197Z" fill="url(#paint3_linear_105_89)"/>
<path d="M555.032 260.895H548.097L536.222 213.293H528.147V260.895H521.402V126.451H541.542C549.047 126.451 554.937 132.437 554.937 139.848V199.801C554.937 206.547 549.712 212.248 543.062 213.008L555.032 260.895ZM528.147 206.547H541.542C545.152 206.547 548.287 203.507 548.287 199.801V139.848C548.287 136.237 545.247 133.102 541.542 133.102H528.147V206.547Z" fill="url(#paint4_linear_105_89)"/>
<path d="M575.361 213.293L570.706 260.895H564.626L578.116 126.451H591.511L604.906 260.895H598.826L594.171 213.293H575.361ZM586.096 133.197H583.436L576.121 206.547H593.411L586.096 133.197Z" fill="url(#paint5_linear_105_89)"/>
</g>
<defs>
<linearGradient id="paint0_linear_105_89" x1="165.655" y1="0" x2="165.655" y2="287.54" gradientUnits="userSpaceOnUse">
<stop stop-color="#C0B7E8"/>
<stop offset="1" stop-color="#8176AF"/>
</linearGradient>
<linearGradient id="paint1_linear_105_89" x1="400.943" y1="126.451" x2="400.943" y2="260.895" gradientUnits="userSpaceOnUse">
<stop stop-color="#C0B7E8"/>
<stop offset="1" stop-color="#8176AF"/>
</linearGradient>
<linearGradient id="paint2_linear_105_89" x1="447.492" y1="126.451" x2="447.492" y2="260.895" gradientUnits="userSpaceOnUse">
<stop stop-color="#C0B7E8"/>
<stop offset="1" stop-color="#8176AF"/>
</linearGradient>
<linearGradient id="paint3_linear_105_89" x1="493.995" y1="126.451" x2="493.995" y2="260.895" gradientUnits="userSpaceOnUse">
<stop stop-color="#C0B7E8"/>
<stop offset="1" stop-color="#8176AF"/>
</linearGradient>
<linearGradient id="paint4_linear_105_89" x1="538.217" y1="126.451" x2="538.217" y2="260.895" gradientUnits="userSpaceOnUse">
<stop stop-color="#C0B7E8"/>
<stop offset="1" stop-color="#8176AF"/>
</linearGradient>
<linearGradient id="paint5_linear_105_89" x1="584.766" y1="126.451" x2="584.766" y2="260.895" gradientUnits="userSpaceOnUse">
<stop stop-color="#C0B7E8"/>
<stop offset="1" stop-color="#8176AF"/>
</linearGradient>
<clipPath id="clip0_105_89">
<rect width="220.873" height="134.444" fill="white" transform="translate(384.128 126.451)"/>
</clipPath>
</defs>
</svg>
