<svg width="273" height="33" viewBox="0 0 273 33" fill="none" xmlns="http://www.w3.org/2000/svg">
<path d="M9.52644 26.288C7.78244 26.288 6.20644 25.912 4.79844 25.16C3.40644 24.408 2.31044 23.376 1.51044 22.064C0.726438 20.736 0.334438 19.248 0.334438 17.6C0.334438 15.952 0.726438 14.472 1.51044 13.16C2.31044 11.832 3.40644 10.792 4.79844 10.04C6.20644 9.288 7.78244 8.912 9.52644 8.912C11.2704 8.912 12.8384 9.288 14.2304 10.04C15.6224 10.792 16.7184 11.832 17.5184 13.16C18.3184 14.472 18.7184 15.952 18.7184 17.6C18.7184 19.248 18.3184 20.736 17.5184 22.064C16.7184 23.376 15.6224 24.408 14.2304 25.16C12.8384 25.912 11.2704 26.288 9.52644 26.288ZM9.52644 22.976C10.5184 22.976 11.4144 22.752 12.2144 22.304C13.0144 21.84 13.6384 21.2 14.0864 20.384C14.5504 19.568 14.7824 18.64 14.7824 17.6C14.7824 16.56 14.5504 15.632 14.0864 14.816C13.6384 14 13.0144 13.368 12.2144 12.92C11.4144 12.456 10.5184 12.224 9.52644 12.224C8.53444 12.224 7.63844 12.456 6.83844 12.92C6.03844 13.368 5.40644 14 4.94244 14.816C4.49444 15.632 4.27044 16.56 4.27044 17.6C4.27044 18.64 4.49444 19.568 4.94244 20.384C5.40644 21.2 6.03844 21.84 6.83844 22.304C7.63844 22.752 8.53444 22.976 9.52644 22.976ZM25.4804 13.376H28.7924V16.256H25.5764V26H21.8324V16.256H19.8404V13.376H21.8324V12.8C21.8324 11.328 22.2644 10.16 23.1284 9.296C24.0084 8.432 25.2404 8 26.8244 8C27.3844 8 27.9124 8.064 28.4084 8.192C28.9204 8.304 29.3444 8.472 29.6804 8.696L28.6964 11.408C28.2644 11.104 27.7604 10.952 27.1844 10.952C26.0484 10.952 25.4804 11.576 25.4804 12.824V13.376Z" fill="white"/>
<path d="M59.9186 3.6L50.2226 26H45.1026L35.4386 3.6H41.0386L47.8546 19.6L54.7666 3.6H59.9186ZM61.7493 8.784H66.7413V26H61.7493V8.784ZM64.2453 6.384C63.328 6.384 62.5813 6.11733 62.0053 5.584C61.4293 5.05067 61.1413 4.38933 61.1413 3.6C61.1413 2.81067 61.4293 2.14933 62.0053 1.616C62.5813 1.08267 63.328 0.815998 64.2453 0.815998C65.1626 0.815998 65.9093 1.072 66.4853 1.584C67.0613 2.096 67.3493 2.736 67.3493 3.504C67.3493 4.336 67.0613 5.02933 66.4853 5.584C65.9093 6.11733 65.1626 6.384 64.2453 6.384ZM76.1423 11.056C76.7396 10.224 77.5396 9.59467 78.5423 9.168C79.5663 8.74133 80.7396 8.528 82.0623 8.528V13.136C81.5076 13.0933 81.1343 13.072 80.9423 13.072C79.513 13.072 78.393 13.4773 77.5823 14.288C76.7716 15.0773 76.3663 16.272 76.3663 17.872V26H71.3743V8.784H76.1423V11.056ZM96.7283 25.168C96.2376 25.5307 95.6296 25.808 94.9043 26C94.2003 26.1707 93.4536 26.256 92.6643 26.256C90.6163 26.256 89.027 25.7333 87.8963 24.688C86.787 23.6427 86.2323 22.1067 86.2323 20.08V13.008H83.5763V9.168H86.2323V4.976H91.2243V9.168H95.5123V13.008H91.2243V20.016C91.2243 20.7413 91.4056 21.3067 91.7683 21.712C92.1523 22.096 92.6856 22.288 93.3683 22.288C94.1576 22.288 94.8296 22.0747 95.3843 21.648L96.7283 25.168ZM116.875 8.784V26H112.139V23.952C111.477 24.6987 110.688 25.2747 109.771 25.68C108.853 26.064 107.861 26.256 106.795 26.256C104.533 26.256 102.741 25.6053 101.419 24.304C100.096 23.0027 99.4346 21.072 99.4346 18.512V8.784H104.427V17.776C104.427 20.5493 105.589 21.936 107.915 21.936C109.109 21.936 110.069 21.552 110.795 20.784C111.52 19.9947 111.883 18.832 111.883 17.296V8.784H116.875ZM128.443 8.528C131.11 8.528 133.158 9.168 134.587 10.448C136.017 11.7067 136.731 13.616 136.731 16.176V26H132.059V23.856C131.121 25.456 129.371 26.256 126.811 26.256C125.489 26.256 124.337 26.032 123.355 25.584C122.395 25.136 121.659 24.5173 121.147 23.728C120.635 22.9387 120.379 22.0427 120.379 21.04C120.379 19.44 120.977 18.1813 122.171 17.264C123.387 16.3467 125.254 15.888 127.771 15.888H131.739C131.739 14.8 131.409 13.968 130.747 13.392C130.086 12.7947 129.094 12.496 127.771 12.496C126.854 12.496 125.947 12.6453 125.051 12.944C124.177 13.2213 123.43 13.6053 122.811 14.096L121.019 10.608C121.958 9.94667 123.078 9.43467 124.379 9.072C125.702 8.70933 127.057 8.528 128.443 8.528ZM128.059 22.896C128.913 22.896 129.67 22.704 130.331 22.32C130.993 21.9147 131.462 21.328 131.739 20.56V18.8H128.315C126.267 18.8 125.243 19.472 125.243 20.816C125.243 21.456 125.489 21.968 125.979 22.352C126.491 22.7147 127.185 22.896 128.059 22.896ZM141.249 2.256H146.241V26H141.249V2.256ZM174.561 26L170.241 19.76H169.985H165.473V26H160.289V3.6H169.985C171.969 3.6 173.686 3.93067 175.137 4.592C176.609 5.25333 177.739 6.192 178.529 7.408C179.318 8.624 179.713 10.064 179.713 11.728C179.713 13.392 179.307 14.832 178.497 16.048C177.707 17.2427 176.577 18.16 175.105 18.8L180.129 26H174.561ZM174.465 11.728C174.465 10.4693 174.059 9.50933 173.249 8.848C172.438 8.16533 171.254 7.824 169.697 7.824H165.473V15.632H169.697C171.254 15.632 172.438 15.2907 173.249 14.608C174.059 13.9253 174.465 12.9653 174.465 11.728ZM200.332 17.456C200.332 17.52 200.3 17.968 200.236 18.8H187.212C187.447 19.8667 188.001 20.7093 188.876 21.328C189.751 21.9467 190.839 22.256 192.14 22.256C193.036 22.256 193.825 22.128 194.508 21.872C195.212 21.5947 195.863 21.168 196.46 20.592L199.116 23.472C197.495 25.328 195.127 26.256 192.012 26.256C190.071 26.256 188.353 25.8827 186.86 25.136C185.367 24.368 184.215 23.312 183.404 21.968C182.593 20.624 182.188 19.0987 182.188 17.392C182.188 15.7067 182.583 14.192 183.372 12.848C184.183 11.4827 185.281 10.4267 186.668 9.68C188.076 8.912 189.644 8.528 191.372 8.528C193.057 8.528 194.583 8.89067 195.948 9.616C197.313 10.3413 198.38 11.3867 199.148 12.752C199.937 14.096 200.332 15.664 200.332 17.456ZM191.404 12.304C190.273 12.304 189.324 12.624 188.556 13.264C187.788 13.904 187.319 14.7787 187.148 15.888H195.628C195.457 14.8 194.988 13.936 194.22 13.296C193.452 12.6347 192.513 12.304 191.404 12.304ZM210.131 8.528C212.797 8.528 214.845 9.168 216.275 10.448C217.704 11.7067 218.419 13.616 218.419 16.176V26H213.747V23.856C212.808 25.456 211.059 26.256 208.499 26.256C207.176 26.256 206.024 26.032 205.043 25.584C204.083 25.136 203.347 24.5173 202.835 23.728C202.323 22.9387 202.067 22.0427 202.067 21.04C202.067 19.44 202.664 18.1813 203.859 17.264C205.075 16.3467 206.941 15.888 209.459 15.888H213.427C213.427 14.8 213.096 13.968 212.435 13.392C211.773 12.7947 210.781 12.496 209.459 12.496C208.541 12.496 207.635 12.6453 206.739 12.944C205.864 13.2213 205.117 13.6053 204.499 14.096L202.707 10.608C203.645 9.94667 204.765 9.43467 206.067 9.072C207.389 8.70933 208.744 8.528 210.131 8.528ZM209.747 22.896C210.6 22.896 211.357 22.704 212.019 22.32C212.68 21.9147 213.149 21.328 213.427 20.56V18.8H210.003C207.955 18.8 206.931 19.472 206.931 20.816C206.931 21.456 207.176 21.968 207.667 22.352C208.179 22.7147 208.872 22.896 209.747 22.896ZM222.937 2.256H227.929V26H222.937V2.256ZM232.562 8.784H237.554V26H232.562V8.784ZM235.058 6.384C234.14 6.384 233.394 6.11733 232.818 5.584C232.242 5.05067 231.954 4.38933 231.954 3.6C231.954 2.81067 232.242 2.14933 232.818 1.616C233.394 1.08267 234.14 0.815998 235.058 0.815998C235.975 0.815998 236.722 1.072 237.298 1.584C237.874 2.096 238.162 2.736 238.162 3.504C238.162 4.336 237.874 5.02933 237.298 5.584C236.722 6.11733 235.975 6.384 235.058 6.384ZM253.291 25.168C252.8 25.5307 252.192 25.808 251.467 26C250.763 26.1707 250.016 26.256 249.227 26.256C247.179 26.256 245.589 25.7333 244.459 24.688C243.349 23.6427 242.795 22.1067 242.795 20.08V13.008H240.139V9.168H242.795V4.976H247.787V9.168H252.075V13.008H247.787V20.016C247.787 20.7413 247.968 21.3067 248.331 21.712C248.715 22.096 249.248 22.288 249.931 22.288C250.72 22.288 251.392 22.0747 251.947 21.648L253.291 25.168ZM272.869 8.784L265.093 27.056C264.303 29.04 263.322 30.4373 262.149 31.248C260.997 32.0587 259.599 32.464 257.957 32.464C257.061 32.464 256.175 32.3253 255.301 32.048C254.426 31.7707 253.711 31.3867 253.157 30.896L254.981 27.344C255.365 27.6853 255.802 27.952 256.293 28.144C256.805 28.336 257.306 28.432 257.797 28.432C258.479 28.432 259.034 28.2613 259.461 27.92C259.887 27.6 260.271 27.056 260.613 26.288L260.677 26.128L253.221 8.784H258.373L263.205 20.464L268.069 8.784H272.869Z" fill="url(#paint0_linear_151_51)"/>
<defs>
<linearGradient id="paint0_linear_151_51" x1="283.361" y1="-5.00001" x2="47.474" y2="23.8965" gradientUnits="userSpaceOnUse">
<stop stop-color="#C0B7E8"/>
<stop offset="1" stop-color="#8176AF"/>
</linearGradient>
</defs>
</svg>
