<svg width="169" height="254" viewBox="0 0 169 254" fill="none" xmlns="http://www.w3.org/2000/svg">
<path fill-rule="evenodd" clip-rule="evenodd" d="M84.5 0C131.168 0 169 37.8319 169 84.5C169 98.6104 165.551 111.906 159.428 123.605L84.5 253.5L11.3074 126.755C4.10429 114.316 0 99.8932 0 84.5C0 37.8319 37.8319 0 84.5 0ZM84.5 24.1429C51.1657 24.1429 24.1429 51.1657 24.1429 84.5C24.1429 94.0853 26.3541 103.283 30.5387 111.585L32.5666 115.289L84.5 205.214L136.8 114.656C142.059 105.576 144.857 95.2835 144.857 84.5C144.857 51.1657 117.834 24.1429 84.5 24.1429ZM84.5 48.2857C104.501 48.2857 120.714 64.4994 120.714 84.5C120.714 104.501 104.501 120.714 84.5 120.714C64.4994 120.714 48.2857 104.501 48.2857 84.5C48.2857 64.4994 64.4994 48.2857 84.5 48.2857ZM84.5 72.4286C77.8331 72.4286 72.4286 77.8331 72.4286 84.5C72.4286 91.1669 77.8331 96.5714 84.5 96.5714C91.1669 96.5714 96.5714 91.1669 96.5714 84.5C96.5714 77.8331 91.1669 72.4286 84.5 72.4286Z" fill="#C0B7E8"/>
</svg>
