<svg width="179" height="179" viewBox="0 0 179 179" fill="none" xmlns="http://www.w3.org/2000/svg">
<path d="M113.208 36.5417C120.272 37.92 127.285 41.0355 132.374 46.125C137.464 51.2145 140.579 58.2272 141.958 65.2917M117.999 3C132.677 4.63051 145.884 11.7311 156.333 22.1667C166.781 32.6023 173.85 45.8249 175.499 60.5M175.494 132.151V158.12C175.535 168.047 166.609 176.336 156.586 175.432C70.0833 175.5 3 107.794 3.0677 21.8714C2.16505 11.9024 10.4134 3.01016 20.3277 3.00084H46.3478C50.557 2.95949 54.6377 4.44711 57.8293 7.1864C66.9029 14.9743 72.7392 41.4078 70.4936 51.916C68.7405 60.1202 60.4703 65.8599 54.8477 71.4714C67.1947 93.1426 85.1737 111.086 106.888 123.409C112.511 117.797 118.262 109.543 126.482 107.794C137.027 105.549 163.631 111.394 171.388 120.53C174.138 123.77 175.6 127.906 175.494 132.151Z" stroke="#C0B7E8" stroke-width="6" stroke-linecap="round" stroke-linejoin="round"/>
</svg>
